<svg id="Ñëîé_1" data-name="Ñëîé 1" xmlns="http://www.w3.org/2000/svg" viewBox="0 0 452.21 381.48"><defs><style>.cls-1{fill:#5793ce;}.cls-2{fill:#c4d9e8;}.cls-3{fill:#d4ecff;}.cls-4{fill:#173d7a;}.cls-5{fill:#fff;}.cls-6{fill:#396caa;}.cls-7{fill:#d3d0cf;}.cls-8{fill:#f2f2f2;}.cls-9{fill:#ffc2b0;}.cls-10{fill:#ea9c92;}.cls-11{fill:#213c6d;}.cls-12{fill:#274f89;}</style></defs><rect class="cls-1" x="411.33" y="396.42" width="2.94" height="8.54" transform="translate(674.56 -157.93) rotate(75.62)"/><rect class="cls-1" x="407.11" y="400.54" width="2.94" height="8.54" transform="translate(675.41 -150.72) rotate(75.63)"/><rect class="cls-1" x="402.89" y="404.66" width="2.94" height="8.54" transform="translate(676.22 -143.54) rotate(75.63)"/><rect class="cls-1" x="398.67" y="408.78" width="2.94" height="8.54" transform="translate(677.02 -136.37) rotate(75.62)"/><path class="cls-2" d="M234.18,144.12l-77.67,45.57c-19.69-6-44.78-4.17-61.33,5.54-20.15,11.82-20,30.75.29,42.29a62.05,62.05,0,0,0,15.28,6,82.63,82.63,0,0,0,12.15,2.1c16.15,1.57,33.39-1.31,45.82-8.6,15.05-8.84,18.78-21.64,11.22-32.36l10.72-6.29-.3-6.8,11.28-.08-.29-6.37,11.28-.08-.28-6.38,11.28-.07-.29-6.38,11.28-.07-.28-6.38,12-.08,3.67-2.16,4.06-16.73Zm-109.29,87.2c-5.25,3.07-13.78,3.13-19.07.13s-5.32-7.93-.08-11,13.78-3.14,19.07-.13S130.13,228.24,124.89,231.32Z" transform="translate(-23.89 -59.26)"/><path class="cls-2" d="M276.67,432.39,171.92,372.16c-7-4.07-6.16-11.19,2-15.89l101.67-58.69c8.14-4.71,20.46-5.22,27.51-1.14l104.75,60.22c7.05,4.07,6.17,11.19-2,15.89l-101.67,58.7C296.05,436,283.73,436.46,276.67,432.39Z" transform="translate(-23.89 -59.26)"/><path class="cls-1" d="M399.48,295.84l-18.11-10.46,66.77-38.55c3.16-1.82,3.16-4.78,0-6.6l-68.21-39.39a12.67,12.67,0,0,0-11.44,0l-66.77,38.55-18.11-10.45,66.77-38.55c13.14-7.59,34.52-7.59,47.66,0l68.21,39.38c13.14,7.59,13.14,19.93,0,27.52Z" transform="translate(-23.89 -59.26)"/><path class="cls-3" d="M428.7,300.44c0-9.68-5.88-20.93-13.14-25.12l-121-69.85c-3.25-1.88-6.22-2-8.52-.73h0L141.61,288.68,281.29,393.93,423.6,311.34a6.65,6.65,0,0,0,1.26-.73h0C427.23,308.81,428.7,305.28,428.7,300.44Z" transform="translate(-23.89 -59.26)"/><path class="cls-4" d="M281.29,393.93,423.6,311.34a6.65,6.65,0,0,0,1.26-.73h0c2.37-1.8,3.84-5.33,3.84-10.17a32.29,32.29,0,0,0-3.54-14L262.94,380.11Z" transform="translate(-23.89 -59.26)"/><path class="cls-1" d="M272.2,393.56l-121-69.85c-7.26-4.19-13.15-15.44-13.15-25.12h0c0-9.68,5.89-14.13,13.15-9.94l121,69.85c7.26,4.19,13.14,15.44,13.14,25.12h0C285.34,393.3,279.46,397.75,272.2,393.56Z" transform="translate(-23.89 -59.26)"/><path class="cls-5" d="M254.08,370l-14.55-8.39a6.25,6.25,0,0,1-2.62-5h0c0-1.93,1.17-2.82,2.62-2L254.08,363a6.27,6.27,0,0,1,2.62,5h0C256.7,370,255.52,370.84,254.08,370Z" transform="translate(-23.89 -59.26)"/><polygon class="cls-6" points="120.97 64.79 145.82 78.91 171.19 64.03 171.12 57.55 170.9 57.68 170.88 57.22 182.16 57.15 182.09 50.77 193.16 50.7 193.09 44.32 204.15 44.24 204.08 37.87 215.14 37.79 215.08 31.42 226.9 31.34 230.58 29.18 234.63 12.45 234.56 5.98 232.61 12.18 214.71 9.79 120.97 64.79"/><polygon class="cls-3" points="145.76 72.44 171.12 57.55 170.81 50.75 182.09 50.67 181.81 44.3 193.09 44.22 192.8 37.85 204.08 37.77 203.8 31.4 215.08 31.32 214.79 24.95 226.84 24.86 230.51 22.71 234.56 5.98 214.64 3.32 120.9 58.32 145.76 72.44"/><path class="cls-6" d="M186.54,121.78A35,35,0,0,0,175,111.85a59.17,59.17,0,0,0-11.91-5l-18.32,10.74,24.86,14.12Z" transform="translate(-23.89 -59.26)"/><polygon class="cls-1" points="233.88 8.79 234.56 5.98 231.22 5.53 152.02 52 156.19 54.37 233.88 8.79"/><polygon class="cls-7" points="60.89 85.21 60.62 76.01 63.56 82.22 60.89 85.21"/><path class="cls-6" d="M100.1,165.17c20.31,11.53,53.1,11.3,73.24-.51,10.1-5.93,15.1-13.64,15-21.32h0l-.28-9.75-1.66,1.84c-2.33-4.8-6.78-9.33-13.38-13.07-20.3-11.54-53.1-11.31-73.24.51S79.79,153.63,100.1,165.17ZM129.43,148c5.29,3,5.32,7.93.08,11s-13.78,3.13-19.07.13-5.32-7.93-.08-11S124.15,145,129.43,148Z" transform="translate(-23.89 -59.26)"/><path class="cls-8" d="M99.82,156c20.31,11.54,53.1,11.31,73.25-.51s20-30.75-.3-42.29-53.1-11.3-73.24.51S79.52,144.44,99.82,156Zm29.34-17.21c5.29,3,5.32,7.93.08,11s-13.79,3.14-19.07.13-5.32-7.93-.08-11S123.87,135.76,129.16,138.76Z" transform="translate(-23.89 -59.26)"/><path class="cls-1" d="M123.37,161c-4.47.7-9.41.09-12.93-1.91-3.79-2.16-4.86-5.3-3.24-8L98,143.77,88.43,133c-7.41,10.83-3.51,23.58,11.67,32.21,6.69,3.8,14.2,6,22.71,7.21Z" transform="translate(-23.89 -59.26)"/><path class="cls-3" d="M99.82,156a61.66,61.66,0,0,0,15.28,6,81.33,81.33,0,0,0,12.15,2.1c16.15,1.57,33.39-1.31,45.82-8.6,20.14-11.82,20-30.75-.3-42.29s-53.1-11.3-73.24.51S79.52,144.44,99.82,156Zm29.34-17.21c5.29,3,5.32,7.93.08,11s-13.79,3.14-19.07.13-5.32-7.93-.08-11S123.87,135.76,129.16,138.76Z" transform="translate(-23.89 -59.26)"/><path class="cls-6" d="M90.23,135c1-5.9,5.36-11.65,13.14-16.22,17.92-10.51,47.09-10.72,65.16-.45,9,5.1,13.52,11.82,13.62,18.59,1.29-7.68-3.18-15.6-13.4-21.41-18.07-10.26-47.25-10.06-65.17.46C94.57,121.28,90.13,128.17,90.23,135Z" transform="translate(-23.89 -59.26)"/><path class="cls-6" d="M78,218.72a20.32,20.32,0,0,1-10.16-2.62c-7.28-4.13-11.33-12.43-11.4-23.37-.14-20,13.75-44.41,31-54.51,9.43-5.54,18.63-6.31,25.91-2.17a20.3,20.3,0,0,1,7.53,7.53c2.53,4.3,3.83,9.63,3.87,15.84.14,20-13.75,44.4-31,54.5C88.32,217.11,83,218.72,78,218.72Zm25.13-78c-3.65,0-7.75,1.27-12,3.77-15.21,8.92-27.48,30.52-27.35,48.15.06,8.21,2.79,14.26,7.69,17s11.51,2,18.59-2.12c15.21-8.92,27.47-30.52,27.35-48.14a24.51,24.51,0,0,0-2.86-12.18h0a12.71,12.71,0,0,0-11.4-6.53Z" transform="translate(-23.89 -59.26)"/><path class="cls-3" d="M112.7,157l14.46,3.55,2.08-10.73c-5.25,3.08-13.79,3.14-19.07.13Z" transform="translate(-23.89 -59.26)"/><path class="cls-3" d="M99.82,156a61.66,61.66,0,0,0,15.28,6,81.33,81.33,0,0,0,12.15,2.1c16.15,1.57,33.39-1.31,45.82-8.6l-58.88-1.32Z" transform="translate(-23.89 -59.26)"/><path class="cls-6" d="M121.58,163.4a84.83,84.83,0,0,1-12.79-3.29v9a69.65,69.65,0,0,0,12.63,3.24C134.9,174.16,121.58,163.4,121.58,163.4Z" transform="translate(-23.89 -59.26)"/><path class="cls-1" d="M112.19,161.2a61.92,61.92,0,0,1-8.33-3.07c-7.87-3.69,2.09,10,2.09,10s2.68,1.07,6.24,2.16Z" transform="translate(-23.89 -59.26)"/><polygon class="cls-1" points="236.01 260.66 210.25 277.27 197.71 275.23 228.34 260.43 236.01 260.66"/><path class="cls-4" d="M228.75,403.8s-7.42-3.74-12,1.83-11.08,18.72-11.28,27.61,7,8.29,11.34,6.19,16.86-20.33,17.62-23.9-.89-8.4-2.1-9.35S228.75,403.8,228.75,403.8Z" transform="translate(-23.89 -59.26)"/><path class="cls-1" d="M230.37,402l.35,7.69a4.37,4.37,0,0,1-2.18,4,8.56,8.56,0,0,1-5.72.89c-5.59-.9-6.09-2.5-6.49-10.18S230.37,402,230.37,402Z" transform="translate(-23.89 -59.26)"/><path class="cls-4" d="M201.59,389s-7.42-3.75-12,1.83-11.07,18.72-11.27,27.61,7,8.29,11.34,6.19,16.86-20.33,17.62-23.91-.89-8.4-2.1-9.34S201.59,389,201.59,389Z" transform="translate(-23.89 -59.26)"/><path class="cls-1" d="M203.21,387.23l.34,7.69a4.36,4.36,0,0,1-2.17,4,8.63,8.63,0,0,1-5.72.89c-5.59-.9-6.09-2.5-6.49-10.19S203.21,387.23,203.21,387.23Z" transform="translate(-23.89 -59.26)"/><path class="cls-3" d="M269.42,246.09c-2.19-35.74-38.7,5.25-38.7,5.25l-25,24.49-22.5,24.72a22.17,22.17,0,0,0-5.59,17.81l9.1,69.3a6.81,6.81,0,0,0,6.83,5.92,23.5,23.5,0,0,0,3.38-.3c8.11-1.26,7.51-9,7.51-9l-1.66-64.82L250.06,291S271.62,281.82,269.42,246.09Z" transform="translate(-23.89 -59.26)"/><path class="cls-1" d="M220.86,307.23l-6.72-2.46c-.16,0-11.43,10.9-11.33,14.71l5.06,1.63,12.7-12.33Z" transform="translate(-23.89 -59.26)"/><path class="cls-1" d="M259.9,319.91s28.08-16,31.44-22.75c1.31-2.63,3.36-5.38-4.83-9.36l-37.45,26.69,1.62,9.19Z" transform="translate(-23.89 -59.26)"/><path class="cls-3" d="M296.59,259.88c-2.35-35.73-38.7,5.25-38.7,5.25l-25,24.49-22.5,24.72a22.17,22.17,0,0,0-5.58,17.81l9.1,69.3a6.81,6.81,0,0,0,6.83,5.92,23.5,23.5,0,0,0,3.37-.3c8.12-1.26,7.52-9,7.52-9L230,333.28l47.25-28.49S298.73,292.54,296.59,259.88Z" transform="translate(-23.89 -59.26)"/><path class="cls-1" d="M275,145c27.67,11.47,27.12,27.83,27.12,27.83s-5.42,60-3.57,100c.77,16.75-89,18-75.58-26.65,15.78-52.67,9.86-95.31,17.25-101.74S267.83,142,275,145Z" transform="translate(-23.89 -59.26)"/><path class="cls-9" d="M283.89,159.5c-1.44,5.62-8.81,8.58-16.44,6.61s-12.65-8.12-11.2-13.73,8.81-8.58,16.44-6.62S285.34,153.88,283.89,159.5Z" transform="translate(-23.89 -59.26)"/><path class="cls-5" d="M272.12,168a19.94,19.94,0,0,1-5-.64,18.41,18.41,0,0,1-9.7-5.94,10.57,10.57,0,0,1-2.45-9.4c1.62-6.32,9.72-9.72,18-7.57a18.37,18.37,0,0,1,9.7,5.94,10.58,10.58,0,0,1,2.45,9.41C283.88,164.86,278.48,168,272.12,168ZM268,146.47c-5.14,0-9.44,2.39-10.43,6.24a8,8,0,0,0,1.94,7.07,15.8,15.8,0,0,0,8.31,5.05c6.91,1.77,13.57-.76,14.83-5.66a8,8,0,0,0-1.94-7.07,15.75,15.75,0,0,0-8.31-5.06A18,18,0,0,0,268,146.47Z" transform="translate(-23.89 -59.26)"/><path class="cls-9" d="M263.89,143.74s.24,1.11-.24,9.88c-.15,2.76,9.51,5.33,12,2.84s1.5-5.09,2.1-14.47S263.89,143.74,263.89,143.74Z" transform="translate(-23.89 -59.26)"/><path class="cls-10" d="M277.75,142s-2.38,8.7-14.1,12l.18-7.9Z" transform="translate(-23.89 -59.26)"/><path class="cls-9" d="M285.17,119.88a21.3,21.3,0,1,1-25.95-15.29A21.3,21.3,0,0,1,285.17,119.88Z" transform="translate(-23.89 -59.26)"/><path class="cls-10" d="M269.44,126s-11.73,5-19.85,5.08-6.33-6.75-6.33-6.75l24.11-3.48Z" transform="translate(-23.89 -59.26)"/><path class="cls-11" d="M247.17,127.32s10.22-4.34,19.18-2.53a9.41,9.41,0,0,1,5.42,3.22,3.24,3.24,0,0,0,1.64,1.19c1.58.36,4.19-6.24,7.28-6.39s5.15,2,2.61,6.09-1.67,8.6-.51,9.25,13.53-8.82,2.63-30.42-38.61-10-42.92-5.59c0,0-4.54,4-8.23.44C234.27,102.58,230.14,133.57,247.17,127.32Z" transform="translate(-23.89 -59.26)"/><path class="cls-9" d="M286.59,216.64v16.21a6.63,6.63,0,0,1-2.16,4.88l-33.29,30.35,3.78,5.78,44-31.88a9,9,0,0,0,3.64-6.3l3-28.26Z" transform="translate(-23.89 -59.26)"/><path class="cls-1" d="M299.77,164.72s10.1,15.19,13.86,55.17c0,0-17.25,5.58-27,2.41S299.77,164.72,299.77,164.72Z" transform="translate(-23.89 -59.26)"/><path class="cls-6" d="M284.74,183.93s-3.95,21.16-4.18,31.1a6.35,6.35,0,0,0,4.18,6.13h0Z" transform="translate(-23.89 -59.26)"/><path class="cls-4" d="M276.1,289.15l-7.35-1-47.5-27.42a6.61,6.61,0,0,0-5.94.24l-33.66,19.43-4.45-.59v4.43h0a1.74,1.74,0,0,0,1,1.56l53.83,31.08a6.58,6.58,0,0,0,5.94-.25l36.65-21.15a2.4,2.4,0,0,0,1.45-2h0Z" transform="translate(-23.89 -59.26)"/><path class="cls-6" d="M240.42,271.82,237,269.87h-37.1l-18.29,10.56-4.45-.59v4.43h0a1.74,1.74,0,0,0,1,1.56l53.83,31.08a5.54,5.54,0,0,0,3.06.57Z" transform="translate(-23.89 -59.26)"/><path class="cls-1" d="M179.18,280.1l-2-.26v4.43h0a1.74,1.74,0,0,0,1,1.56l1,.55Z" transform="translate(-23.89 -59.26)"/><path class="cls-12" d="M232.6,317.16a6.9,6.9,0,0,0,5.05-.31v-7.54H232.6Z" transform="translate(-23.89 -59.26)"/><path class="cls-5" d="M232.06,312.48,178.23,281.4c-1.53-.88-1.34-2.41.42-3.43l36.66-21.15a6.58,6.58,0,0,1,5.94-.25l53.83,31.08c1.52.88,1.33,2.41-.43,3.43L238,312.23A6.58,6.58,0,0,1,232.06,312.48Z" transform="translate(-23.89 -59.26)"/><path class="cls-3" d="M231.15,307.77l-44.76-25.84c-1.27-.73-1.11-2,.35-2.85L206.38,268a5.51,5.51,0,0,1,4.94-.2l44.76,25.84c1.27.73,1.11,2-.35,2.85l-19.64,11.05A5.51,5.51,0,0,1,231.15,307.77Z" transform="translate(-23.89 -59.26)"/><path class="cls-9" d="M217.39,255.8l-.56,3.71a27.74,27.74,0,0,0,.24,9.53l.67,3.27a4.59,4.59,0,0,0,3.68,3.61h0a2.53,2.53,0,0,0,3-2.21l.89-7.94s2,2.66,3,2.66S227.21,260.48,225,256,217.39,255.8,217.39,255.8Z" transform="translate(-23.89 -59.26)"/><path class="cls-9" d="M235.63,196.77l-5.77,11.43a22.24,22.24,0,0,0-2.36,8.68L225,256l-7.6-.18-3.45-43.91a15.78,15.78,0,0,1,.2-4.06l3.94-22.27Z" transform="translate(-23.89 -59.26)"/><path class="cls-4" d="M230.23,315.47l-4.51-5.9-47.47-27.48a6.61,6.61,0,0,1-2.75-5.27l0-38.86-2.72-3.56,2.56-1.49h0a1.73,1.73,0,0,1,1.86.1L231,264.17a6.61,6.61,0,0,1,2.75,5.27l0,42.32a2.39,2.39,0,0,1-1,2.26h0Z" transform="translate(-23.89 -59.26)"/><path class="cls-6" d="M197.41,293.18,194,291.23l-18.51-32.15V238l-2.72-3.56,2.56-1.49h0a1.73,1.73,0,0,1,1.86.1L231,264.17a5.5,5.5,0,0,1,2,2.37Z" transform="translate(-23.89 -59.26)"/><path class="cls-1" d="M174,236l-1.21-1.58,2.56-1.49h0a1.73,1.73,0,0,1,1.86.1l.95.55Z" transform="translate(-23.89 -59.26)"/><path class="cls-12" d="M231.52,264.51a6.91,6.91,0,0,1,2.25,4.53l-5.26,3L226,267.7Z" transform="translate(-23.89 -59.26)"/><path class="cls-1" d="M228.47,265.65l-53.79-31.14c-1.52-.88-2.76.05-2.76,2.08l0,42.32a6.58,6.58,0,0,0,2.75,5.27l53.79,31.14c1.52.89,2.76-.05,2.76-2.08l0-42.32A6.56,6.56,0,0,0,228.47,265.65Z" transform="translate(-23.89 -59.26)"/><path class="cls-9" d="M254.92,273.86l-.86,1.79a12,12,0,0,1-4.5,5l-5.34,3.3a5.33,5.33,0,0,1-5.45.12l-.19-.11a3.22,3.22,0,0,1-.45-4.94l5.58-5.74s-3.13,2.41-4,1.44c-.65-.71,3-4.17,5.87-4.29a11.16,11.16,0,0,0,5.57-2.33Z" transform="translate(-23.89 -59.26)"/><path class="cls-1" d="M240.76,144.38S220.3,166.65,212,187.08c0,0,7,12.61,24.13,17.56S240.76,144.38,240.76,144.38Z" transform="translate(-23.89 -59.26)"/><path class="cls-6" d="M232.32,203.32l3.31-32-7.81,30A45.77,45.77,0,0,0,232.32,203.32Z" transform="translate(-23.89 -59.26)"/><path class="cls-5" d="M256.1,139.88l-5.5-1.51s2.62,4.13,6.45,5.18,4.43-2.19,4.43-2.19Z" transform="translate(-23.89 -59.26)"/><path class="cls-3" d="M151.7,90.65a15.41,15.41,0,1,1,15.41-15.41A15.42,15.42,0,0,1,151.7,90.65Zm0-27.45a12,12,0,1,0,12.05,12A12.05,12.05,0,0,0,151.7,63.2Z" transform="translate(-23.89 -59.26)"/><path class="cls-1" d="M463.16,201.66a10.92,10.92,0,1,1,10.93-10.92A10.93,10.93,0,0,1,463.16,201.66Zm0-18.48a7.56,7.56,0,1,0,7.56,7.56A7.57,7.57,0,0,0,463.16,183.18Z" transform="translate(-23.89 -59.26)"/><path class="cls-1" d="M105,399,97.54,384l15.08-7.41L120,391.62ZM102,385.49l4.45,9,9.05-4.44-4.45-9Z" transform="translate(-23.89 -59.26)"/><path class="cls-1" d="M323.85,165.27l-7.41-15.08,15.08-7.42,7.41,15.09Zm-2.91-13.55,4.44,9.05,9.05-4.45-4.44-9Z" transform="translate(-23.89 -59.26)"/><rect class="cls-1" x="79.08" y="308.37" width="7.73" height="7.73" transform="translate(-153.14 9.37) rotate(-26.18)"/><path class="cls-11" d="M356.45,83.44l-41.21-23.8a2.11,2.11,0,0,0-2.13-.17v0l-4,2.31,2.81,1v30a7.94,7.94,0,0,0,3.32,6.34l39.38,22.74v3.52l4-2.33h0a3,3,0,0,0,1.12-2.65V89.77A7.92,7.92,0,0,0,356.45,83.44Z" transform="translate(-23.89 -59.26)"/><path class="cls-1" d="M352.37,125.27l-41.21-23.8a7.92,7.92,0,0,1-3.31-6.33V64.5c0-2.45,1.48-3.57,3.31-2.51l41.21,23.79a7.94,7.94,0,0,1,3.32,6.34v30.64C355.69,125.2,354.21,126.32,352.37,125.27Z" transform="translate(-23.89 -59.26)"/><path class="cls-5" d="M325,90.91c0,1.78-1.24,2.5-2.78,1.61a6.16,6.16,0,0,1-2.78-4.82c0-1.77,1.25-2.49,2.78-1.6A6.12,6.12,0,0,1,325,90.91Z" transform="translate(-23.89 -59.26)"/><path class="cls-5" d="M333.45,95.78c0,1.77-1.25,2.49-2.78,1.6a6.12,6.12,0,0,1-2.78-4.81c0-1.78,1.24-2.49,2.78-1.61A6.16,6.16,0,0,1,333.45,95.78Z" transform="translate(-23.89 -59.26)"/><path class="cls-5" d="M341.87,100.64c0,1.77-1.24,2.49-2.78,1.61a6.15,6.15,0,0,1-2.78-4.82c0-1.77,1.24-2.49,2.78-1.61A6.15,6.15,0,0,1,341.87,100.64Z" transform="translate(-23.89 -59.26)"/><path class="cls-1" d="M71.57,344.14,31.14,320.8a2.08,2.08,0,0,0-2.09-.17v0l-3.92,2.27,2.76,1v29.44a7.78,7.78,0,0,0,3.25,6.21l38.64,22.31v3.46l4-2.28h0a2.9,2.9,0,0,0,1.1-2.6V350.35A7.81,7.81,0,0,0,71.57,344.14Z" transform="translate(-23.89 -59.26)"/><path class="cls-3" d="M67.57,385.18,27.15,361.83a7.77,7.77,0,0,1-3.26-6.21V325.56c0-2.4,1.46-3.5,3.26-2.46l40.42,23.34a7.79,7.79,0,0,1,3.26,6.22v30.06C70.83,385.11,69.37,386.21,67.57,385.18Z" transform="translate(-23.89 -59.26)"/><path class="cls-5" d="M40.74,351.48c0,1.73-1.22,2.44-2.73,1.57a6,6,0,0,1-2.72-4.72c0-1.74,1.22-2.45,2.72-1.58A6,6,0,0,1,40.74,351.48Z" transform="translate(-23.89 -59.26)"/><path class="cls-5" d="M49,356.25c0,1.74-1.23,2.44-2.73,1.57a6,6,0,0,1-2.73-4.72c0-1.74,1.22-2.45,2.73-1.58A6.06,6.06,0,0,1,49,356.25Z" transform="translate(-23.89 -59.26)"/><path class="cls-5" d="M57.27,361c0,1.74-1.22,2.44-2.73,1.57a6,6,0,0,1-2.73-4.72c0-1.74,1.22-2.45,2.73-1.58A6,6,0,0,1,57.27,361Z" transform="translate(-23.89 -59.26)"/></svg>