<svg id="Layer_1" data-name="Layer 1" xmlns="http://www.w3.org/2000/svg" viewBox="0 0 627 185"><defs><style>.cls-1{font-size:33px;fill:#595a5a;font-family:Roboto-Italic, Roboto;font-style:italic;letter-spacing:0.09em;}.cls-2{letter-spacing:0.1em;}.cls-3{letter-spacing:0.04em;}.cls-4{fill:#1f2f5e;}.cls-5{fill:#1187c4;}</style></defs><text class="cls-1" transform="translate(138.66 170.54)">A<tspan class="cls-2" x="23.59" y="0">CCELER</tspan><tspan class="cls-3" x="156.07" y="0">A</tspan><tspan class="cls-2" x="177.75" y="0">TING BUSINESSES</tspan></text><path class="cls-4" d="M83.14,69.92,15.9,2.46a7.52,7.52,0,0,0-10.65.3h0a7.57,7.57,0,0,0-.31,10.67L72.18,80.89a7.52,7.52,0,0,0,10.65-.3h0A7.55,7.55,0,0,0,83.14,69.92Z"/><path class="cls-4" d="M80.57,82.63l43.32-43.09c1.84-1.83.87-5.77-2.16-8.8h0c-3-3-7-4-8.81-2.16L69.6,71.67c-1.84,1.83-.87,5.77,2.16,8.8h0C74.79,83.49,78.73,84.46,80.57,82.63Z"/><path class="cls-5" d="M62.17,88.34,10,36a5.84,5.84,0,0,0-8.27.24h0a5.87,5.87,0,0,0-.24,8.28L53.66,96.87a5.84,5.84,0,0,0,8.27-.24h0A5.89,5.89,0,0,0,62.17,88.34Z"/><path class="cls-4" d="M83.14,115.08,15.9,182.54a7.52,7.52,0,0,1-10.65-.3h0a7.57,7.57,0,0,1-.31-10.67l67.24-67.46a7.52,7.52,0,0,1,10.65.3h0A7.55,7.55,0,0,1,83.14,115.08Z"/><path class="cls-4" d="M80.57,102.37l43.32,43.09c1.84,1.83.87,5.77-2.16,8.8h0c-3,3-7,4-8.81,2.16L69.6,113.33c-1.84-1.83-.87-5.77,2.16-8.8h0C74.79,101.51,78.73,100.54,80.57,102.37Z"/><path class="cls-5" d="M62.17,96.66,10,149a5.84,5.84,0,0,1-8.27-.24h0a5.87,5.87,0,0,1-.24-8.28L53.66,88.13a5.84,5.84,0,0,1,8.27.24h0A5.89,5.89,0,0,1,62.17,96.66Z"/><polygon class="cls-4" points="202.76 127.05 170.6 84.35 170.6 125.5 165.6 125.5 165.6 69.41 206.75 124.04 202.76 127.05"/><rect class="cls-4" x="190.78" y="49.48" width="5" height="82.48" transform="translate(-16.88 128.43) rotate(-35.32)"/><polygon class="cls-4" points="235.71 125.71 230.71 125.71 230.71 68.92 205.58 104.2 201.51 101.3 235.71 53.27 235.71 125.71"/><polygon class="cls-5" points="363.36 126.66 339.38 67.88 317.3 125.27 312.64 123.47 339.24 54.31 367.99 124.77 363.36 126.66"/><rect class="cls-5" x="325.94" y="110.66" width="21" height="5"/><rect class="cls-5" x="449.26" y="61.07" width="5" height="64.3"/><rect class="cls-5" x="498.26" y="56.07" width="5" height="69.3"/><rect class="cls-5" x="536.26" y="61.07" width="5" height="64.3"/><polygon class="cls-5" points="624.97 125.04 583.15 125.04 583.15 58.57 624.97 58.57 624.97 63.57 588.15 63.57 588.15 120.04 624.97 120.04 624.97 125.04"/><rect class="cls-5" x="586.5" y="84" width="29.62" height="5"/><rect class="cls-5" x="586.5" y="97.15" width="29.62" height="5"/><polygon class="cls-5" points="566.01 126.57 553.78 104.21 539.78 104.21 539.78 99.21 556.75 99.21 570.4 124.17 566.01 126.57"/><path class="cls-5" d="M467.44,92.72H449.26v-37h18.18c9.45,0,17.14,8.3,17.14,18.5S476.89,92.72,467.44,92.72Zm-13.18-5h13.18c6.69,0,12.14-6,12.14-13.5s-5.45-13.5-12.14-13.5H454.26Z"/><polygon class="cls-4" points="290.97 125.04 249.15 125.04 249.15 55.57 290.97 55.57 290.97 60.57 254.15 60.57 254.15 120.04 290.97 120.04 290.97 125.04"/><rect class="cls-4" x="252.5" y="84" width="29.62" height="5"/><rect class="cls-4" x="252.5" y="97.15" width="29.62" height="5"/><rect class="cls-5" x="339.11" y="77.86" width="5" height="49.12" transform="translate(-13.51 135.28) rotate(-21.98)"/><polygon class="cls-5" points="441.45 125.58 436.45 125.58 436.45 55.72 451.76 55.72 451.76 60.72 441.45 60.72 441.45 125.58"/><path class="cls-4" d="M152.1,107.2a16.14,16.14,0,0,1-6.19,13.35q-6.19,4.94-16.46,4.93-12.33,0-18.92-2.72v-4.69q7.27,3.08,18.56,3.08,8.28,0,13.14-3.8a12,12,0,0,0,4.86-10,11.5,11.5,0,0,0-1.62-6.34,14.78,14.78,0,0,0-5.24-4.58A64.78,64.78,0,0,0,129.55,92q-10.32-3.56-14.25-7.67t-3.94-11a15.06,15.06,0,0,1,5.92-12.31q5.91-4.77,15.21-4.77a44.64,44.64,0,0,1,17.82,3.59l-1.71,4.06a41.38,41.38,0,0,0-16-3.5q-7.46,0-11.87,3.45a11.26,11.26,0,0,0-4.42,9.39,12.33,12.33,0,0,0,1.35,6.12,12.47,12.47,0,0,0,4.45,4.31,60.66,60.66,0,0,0,10.59,4.58,57.43,57.43,0,0,1,11.83,5.27,17,17,0,0,1,5.78,5.8A15.87,15.87,0,0,1,152.1,107.2Z"/><polygon class="cls-5" points="529.45 125.58 524.45 125.58 524.45 55.72 539.76 55.72 539.76 60.72 529.45 60.72 529.45 125.58"/><path class="cls-5" d="M554.44,92.72H536.26v-37h18.18c9.45,0,17.14,8.3,17.14,18.5S563.89,92.72,554.44,92.72Zm-13.18-5h13.18c6.69,0,12.14-6,12.14-13.5s-5.45-13.5-12.14-13.5H541.26Z"/><path class="cls-5" d="M420.1,107.2a16.14,16.14,0,0,1-6.19,13.35q-6.2,4.94-16.46,4.93-12.33,0-18.92-2.72v-4.69q7.28,3.08,18.56,3.08,8.28,0,13.14-3.8a12,12,0,0,0,4.86-10,11.5,11.5,0,0,0-1.62-6.34,14.78,14.78,0,0,0-5.24-4.58A64.78,64.78,0,0,0,397.55,92q-10.32-3.56-14.25-7.67t-3.94-11a15.06,15.06,0,0,1,5.92-12.31q5.91-4.77,15.21-4.77a44.64,44.64,0,0,1,17.82,3.59l-1.71,4.06a41.38,41.38,0,0,0-16-3.5q-7.45,0-11.87,3.45a11.26,11.26,0,0,0-4.42,9.39,12.33,12.33,0,0,0,1.35,6.12,12.47,12.47,0,0,0,4.45,4.31,60.66,60.66,0,0,0,10.59,4.58,57.43,57.43,0,0,1,11.83,5.27,17,17,0,0,1,5.78,5.8A15.87,15.87,0,0,1,420.1,107.2Z"/></svg>