<svg xmlns="http://www.w3.org/2000/svg" viewBox="0 0 491.58 435.27"><defs><style>.cls-1{fill:#ebebeb;}.cls-2{fill:#e6e6e6;}.cls-3{fill:#f0f0f0;}.cls-4{fill:#fff;}.cls-5{fill:#e0e0e0;}.cls-6{fill:#f5f5f5;}.cls-7{fill:#fafafa;}.cls-18,.cls-8{fill:#29335d;}.cls-10,.cls-9{fill:#4e85c0;}.cls-10,.cls-19,.cls-20{opacity:0.3;}.cls-11,.cls-12{fill:#7ab0e2;}.cls-12{opacity:0.6;}.cls-13{fill:#263238;}.cls-14{fill:#ff8b7b;}.cls-15{fill:#ff5652;}.cls-16{opacity:0.2;}.cls-17,.cls-20{fill:#407bff;}.cls-18{opacity:0.4;}</style></defs><g id="Background_Complete" data-name="Background Complete"><rect class="cls-1" x="294.38" y="390.47" width="29.74" height="0.29"/><rect class="cls-1" x="416.93" y="396.79" width="70.48" height="0.29"/><rect class="cls-1" x="215.24" y="390.62" width="72.82" height="0.29"/><rect class="cls-1" x="152.79" y="399.36" width="15.23" height="0.29"/><rect class="cls-1" x="182.82" y="399.36" width="69.36" height="0.29"/><rect class="cls-1" x="16.65" y="394.42" width="44.92" height="0.29"/><path class="cls-1" d="M235.06,354H9.49a6.67,6.67,0,0,1-6.67-6.67V30.29a6.67,6.67,0,0,1,6.67-6.67H235.06a6.67,6.67,0,0,1,6.67,6.67V347.37A6.67,6.67,0,0,1,235.06,354ZM9.49,23.91a6.38,6.38,0,0,0-6.38,6.38V347.37a6.38,6.38,0,0,0,6.38,6.37H235.06a6.38,6.38,0,0,0,6.38-6.37V30.29a6.38,6.38,0,0,0-6.38-6.38Z" transform="translate(-2.82 -23.62)"/><path class="cls-1" d="M487.74,354H262.16a6.67,6.67,0,0,1-6.66-6.67V30.29a6.67,6.67,0,0,1,6.66-6.67H487.74a6.67,6.67,0,0,1,6.66,6.67V347.37A6.67,6.67,0,0,1,487.74,354ZM262.16,23.91a6.38,6.38,0,0,0-6.37,6.38V347.37a6.38,6.38,0,0,0,6.37,6.37H487.74a6.38,6.38,0,0,0,6.37-6.37V30.29a6.38,6.38,0,0,0-6.37-6.38Z" transform="translate(-2.82 -23.62)"/><polygon class="cls-2" points="184.29 281.2 106.72 281.2 102.01 226.88 179.58 226.88 184.29 281.2"/><polygon class="cls-3" points="188.3 281.2 110.74 281.2 106.03 226.88 183.59 226.88 188.3 281.2"/><polygon class="cls-4" points="121.34 269.53 118.75 238.54 172.99 238.54 175.58 269.53 121.34 269.53"/><rect class="cls-2" x="192.62" y="281.2" width="9.1" height="101.32"/><rect class="cls-3" x="198.28" y="281.2" width="6.32" height="101.32"/><rect class="cls-3" x="119.33" y="304.82" width="88.09" height="11.18" transform="translate(323.92 597.2) rotate(180)"/><rect class="cls-2" x="110.52" y="292.38" width="9.1" height="90.13"/><rect class="cls-3" x="116.17" y="292.38" width="6.32" height="90.13"/><rect class="cls-2" x="45.73" y="292.38" width="9.1" height="90.13"/><rect class="cls-3" x="51.39" y="292.38" width="6.32" height="90.13"/><rect class="cls-2" x="135.03" y="292.38" width="9.1" height="90.13"/><rect class="cls-3" x="140.68" y="292.38" width="6.32" height="90.13"/><rect class="cls-2" x="45.73" y="281.2" width="70.77" height="11.18"/><rect class="cls-5" x="106.66" y="28.57" width="273.74" height="152.4"/><rect class="cls-6" x="108.04" y="28.57" width="287.39" height="152.4"/><rect class="cls-4" x="183.05" y="-10.61" width="143.01" height="278" transform="translate(380.13 -149.78) rotate(90)"/><polygon class="cls-6" points="225.29 176.28 277.78 33.27 191.16 33.27 138.67 176.28 225.29 176.28"/><polygon class="cls-6" points="308.67 176.28 361.16 33.27 295.81 33.27 243.33 176.28 308.67 176.28"/><rect class="cls-2" x="443.89" y="236.97" width="23.27" height="145.55"/><polygon class="cls-7" points="461.04 382.51 467.16 382.51 467.16 371.31 454.63 371.31 461.04 382.51"/><rect class="cls-2" x="229.35" y="236.97" width="23.27" height="145.55"/><rect class="cls-7" x="247.28" y="236.97" width="219.88" height="142.53"/><path class="cls-2" d="M465.82,306.57H254.26V266.32H465.82ZM255.43,305.4H464.65V267.49H255.43Z" transform="translate(-2.82 -23.62)"/><path class="cls-2" d="M428.58,285.86h-133c-6.17,0-12.12-5-16.31-13.66l-.4-.84H445.29l-.41.84C440.7,280.88,434.75,285.86,428.58,285.86ZM280.77,272.53c4,7.74,9.33,12.16,14.84,12.16h133c5.51,0,10.88-4.42,14.84-12.16Z" transform="translate(-2.82 -23.62)"/><polygon class="cls-7" points="253.39 382.51 247.28 382.51 247.28 371.31 259.81 371.31 253.39 382.51"/><path class="cls-2" d="M465.82,352H254.26V311.72H465.82Zm-210.39-1.17H464.65V312.89H255.43Z" transform="translate(-2.82 -23.62)"/><path class="cls-2" d="M428.58,331.27h-133c-6.17,0-12.12-5-16.31-13.67l-.4-.84H445.29l-.41.84C440.7,326.28,434.75,331.27,428.58,331.27ZM280.77,317.93c4,7.75,9.33,12.17,14.84,12.17h133c5.51,0,10.88-4.42,14.84-12.17Z" transform="translate(-2.82 -23.62)"/><path class="cls-2" d="M465.82,397.38H254.26V357.12H465.82Zm-210.39-1.17H464.65V358.29H255.43Z" transform="translate(-2.82 -23.62)"/><path class="cls-2" d="M428.58,376.67h-133c-6.17,0-12.12-5-16.31-13.67l-.4-.84H445.29l-.41.84C440.7,371.69,434.75,376.67,428.58,376.67ZM280.77,363.33c4,7.75,9.33,12.17,14.84,12.17h133c5.51,0,10.88-4.42,14.84-12.17Z" transform="translate(-2.82 -23.62)"/><polygon class="cls-2" points="96.7 256.22 96.7 259.04 94.89 259.04 93.4 281.2 71.39 281.2 69.9 259.04 68.09 259.04 68.09 256.22 96.7 256.22"/><path class="cls-2" d="M92.28,224.85c-1.81-13.2-19.62-17-42.22-17.45-21.51-.46-28.4-8.07-28.4-8.07s.07,30.81,31.06,42C82.15,251.9,94.09,238.07,92.28,224.85Z" transform="translate(-2.82 -23.62)"/><path class="cls-2" d="M81.29,254.77c.38-5.43,9-15.4,29.89-10.87,15.07,3.28,20.68-4.53,20.68-4.53s-1.4,22.05-24.07,28.68C86.27,274.35,80.63,264.32,81.29,254.77Z" transform="translate(-2.82 -23.62)"/><path class="cls-2" d="M86.05,288.16a.81.81,0,0,0,.61-.29c1.51-1.78.28-6.06-1.44-12C83,268.29,80.3,258.84,82.61,252a95.68,95.68,0,0,1,4.49-10.6c3.27-6.92,6.09-12.9,3.74-19.14a.81.81,0,1,0-1.51.57c2.12,5.6-.44,11-3.69,17.88a97.2,97.2,0,0,0-4.55,10.78c-2.48,7.34.33,17.06,2.59,24.87,1.33,4.61,2.71,9.37,1.75,10.5a.82.82,0,0,0,.1,1.14A.83.83,0,0,0,86.05,288.16Z" transform="translate(-2.82 -23.62)"/></g><g id="Shadow"><ellipse id="_Path_" data-name="&lt;Path&gt;" class="cls-6" cx="247.41" cy="422.05" rx="226.5" ry="13.23"/></g><g id="Login"><polygon class="cls-8" points="247.37 357.57 81.48 357.57 72.4 90.8 238.29 90.8 247.37 357.57"/><polygon class="cls-9" points="255.64 349.3 89.76 349.3 80.68 82.52 246.56 82.52 255.64 349.3"/><polygon class="cls-10" points="255.64 349.3 89.76 349.3 80.68 82.52 246.56 82.52 255.64 349.3"/><ellipse class="cls-11" cx="169.05" cy="182.66" rx="45.87" ry="47.46" transform="translate(-82.54 151.53) rotate(-45.49)"/><path class="cls-4" d="M207.56,182.65a37.49,37.49,0,0,1-4,18.35,36.92,36.92,0,0,1-33.17,20.16A40,40,0,0,1,135.82,201a39.08,39.08,0,0,1-5.28-18.35,37,37,0,0,1,37.2-38.51A40.14,40.14,0,0,1,207.56,182.65Z" transform="translate(-2.82 -23.62)"/><path class="cls-12" d="M203.53,201a36.92,36.92,0,0,1-33.17,20.16A40,40,0,0,1,135.82,201a59,59,0,0,1,33.5-10.26A62.41,62.41,0,0,1,203.53,201Z" transform="translate(-2.82 -23.62)"/><ellipse class="cls-12" cx="168.6" cy="169.48" rx="16.86" ry="17.45" transform="translate(-73.27 147.26) rotate(-45.49)"/><polygon class="cls-4" points="222.32 252.69 116.51 252.69 115.79 231.66 221.61 231.66 222.32 252.69"/><polygon class="cls-4" points="223.6 290.27 117.78 290.27 117.07 269.24 222.89 269.24 223.6 290.27"/><path class="cls-8" d="M185.58,295.75l-25.5,3.47a1.78,1.78,0,0,0-1.53,2.11l3.34,17.09a2,2,0,0,0,2.27,1.59l25.5-3.46a1.78,1.78,0,0,0,1.54-2.11l-3.35-17.09A2.06,2.06,0,0,0,185.58,295.75Zm-7.32,17.32-4.62.62-.46-5.51a3.26,3.26,0,0,1-1.9-2.33,2.91,2.91,0,0,1,2.52-3.46,3.35,3.35,0,0,1,3.69,2.61,2.84,2.84,0,0,1-.9,2.71Z" transform="translate(-2.82 -23.62)"/><path class="cls-8" d="M183.07,294.84h0a1.82,1.82,0,0,1-2-1.42l-.33-1.67a9.61,9.61,0,0,0-10.07-7.66,8.21,8.21,0,0,0-7.55,9.8l.37,1.92a1.58,1.58,0,0,1-1.36,1.88h0a1.82,1.82,0,0,1-2-1.42l-.32-1.63a11.51,11.51,0,0,1,9.31-13.72,13.09,13.09,0,0,1,15,10.12l.37,1.92A1.58,1.58,0,0,1,183.07,294.84Z" transform="translate(-2.82 -23.62)"/><polygon class="cls-8" points="206.14 319.71 137.26 319.71 136.79 306.03 205.67 306.03 206.14 319.71"/><path class="cls-13" d="M175.72,265.79a3.69,3.69,0,0,1-3.71,3.85,4,4,0,0,1-4-3.85,3.69,3.69,0,0,1,3.72-3.84A4,4,0,0,1,175.72,265.79Z" transform="translate(-2.82 -23.62)"/><path class="cls-13" d="M159.17,265.79a3.69,3.69,0,0,1-3.72,3.85,4,4,0,0,1-4-3.85,3.68,3.68,0,0,1,3.71-3.84A4,4,0,0,1,159.17,265.79Z" transform="translate(-2.82 -23.62)"/><path class="cls-13" d="M142.61,265.79a3.69,3.69,0,0,1-3.71,3.85,4,4,0,0,1-4-3.85,3.69,3.69,0,0,1,3.71-3.84A4,4,0,0,1,142.61,265.79Z" transform="translate(-2.82 -23.62)"/><path class="cls-13" d="M192.28,265.79a3.69,3.69,0,0,1-3.71,3.85,4,4,0,0,1-4-3.85A3.69,3.69,0,0,1,188.3,262,4,4,0,0,1,192.28,265.79Z" transform="translate(-2.82 -23.62)"/><path class="cls-13" d="M208.84,265.79a3.69,3.69,0,0,1-3.72,3.85,4,4,0,0,1-4-3.85,3.68,3.68,0,0,1,3.71-3.84A4,4,0,0,1,208.84,265.79Z" transform="translate(-2.82 -23.62)"/></g><g id="Character"><path class="cls-14" d="M348.26,163c1.55,2.49,2.84,4.88,4.18,7.37s2.53,5,3.71,7.54a109.39,109.39,0,0,1,6,16c.21.69.36,1.43.54,2.15l.25,1.08.13.54.15.89a15.57,15.57,0,0,1-.36,6,33.9,33.9,0,0,1-3.64,8.71A69.27,69.27,0,0,1,348.8,227l-4.92-3.72a130.74,130.74,0,0,0,6.59-14.06,30,30,0,0,0,1.78-6.58,5.32,5.32,0,0,0-.09-2.07l-.47-1.43c-.19-.58-.36-1.16-.59-1.76a127.36,127.36,0,0,0-6.16-14.11c-2.29-4.65-4.84-9.39-7.35-13.81Z" transform="translate(-2.82 -23.62)"/><path class="cls-14" d="M345.13,221.59l-5.36,2.85,6.16,7.22s3.85-2.6,4-6.58Z" transform="translate(-2.82 -23.62)"/><polygon class="cls-14" points="329.73 205.27 336.34 210.51 343.11 208.04 336.95 200.82 329.73 205.27"/><path class="cls-13" d="M310,124.8c-.14.65-.59,1.1-1,1s-.66-.68-.53-1.33.58-1.11,1-1S310.12,124.15,310,124.8Z" transform="translate(-2.82 -23.62)"/><path class="cls-15" d="M309.46,125.92a23.89,23.89,0,0,1-4.23,4.92,3.81,3.81,0,0,0,3,1.21Z" transform="translate(-2.82 -23.62)"/><path class="cls-14" d="M307.36,148.83l.05-7.65,10.14,1.22s-.18,6.58-5.84,8.52Z" transform="translate(-2.82 -23.62)"/><polygon class="cls-14" points="307.45 112.04 314.59 114.09 314.73 118.78 304.59 117.56 307.45 112.04"/><path class="cls-16" d="M317.42,137.71l-7.14-2.05-1.39,2.66a11.36,11.36,0,0,0,6.59,9.91,11.2,11.2,0,0,0,2.06-5.83Z" transform="translate(-2.82 -23.62)"/><path class="cls-13" d="M313.1,121.68a.4.4,0,0,0,.28-.66,3.87,3.87,0,0,0-3.31-1.29.4.4,0,0,0-.32.45.39.39,0,0,0,.45.32h0a3.09,3.09,0,0,1,2.61,1A.41.41,0,0,0,313.1,121.68Z" transform="translate(-2.82 -23.62)"/><path class="cls-14" d="M328,136.62c-1.18,6-1.89,14.34,2.32,18.35,0,0-1.64,6.1-12.81,6.1-12.29,0-5.91-5.35-5.91-5.35,5.1-1.59,5.06-7.4,3.89-12.07Z" transform="translate(-2.82 -23.62)"/><path class="cls-17" d="M332.64,159c1.09-1.55,1.05-6.44-.12-7.31-1.88-1.39-9.95-1.71-20.81.79,1.17,4.74-1.34,7.22-1.34,7.22Z" transform="translate(-2.82 -23.62)"/><path class="cls-17" d="M369.15,436.32a2.69,2.69,0,0,1-2-.11.82.82,0,0,1-.19-.91.92.92,0,0,1,.51-.57c1.1-.53,3.65.51,3.76.55a.2.2,0,0,1,.12.18.17.17,0,0,1-.11.18A10.18,10.18,0,0,1,369.15,436.32ZM367.81,435a.88.88,0,0,0-.23.07.52.52,0,0,0-.29.33c-.11.35,0,.46.07.5.44.38,2.08,0,3.23-.43A6.3,6.3,0,0,0,367.81,435Z" transform="translate(-2.82 -23.62)"/><path class="cls-17" d="M371.15,435.65a.17.17,0,0,1-.1,0c-.92-.27-2.91-1.68-2.94-2.61a.64.64,0,0,1,.5-.63,1,1,0,0,1,.86.07c1.1.56,1.8,2.83,1.82,2.93a.17.17,0,0,1,0,.19A.14.14,0,0,1,371.15,435.65Zm-2.33-2.9-.08,0c-.24.09-.24.21-.24.26,0,.55,1.33,1.65,2.29,2.1a4.73,4.73,0,0,0-1.49-2.31A.74.74,0,0,0,368.82,432.75Z" transform="translate(-2.82 -23.62)"/><path class="cls-17" d="M308.48,437.7c-1.05,0-2.07-.15-2.41-.62a.74.74,0,0,1,0-.85.94.94,0,0,1,.61-.46c1.37-.37,4.24,1.27,4.36,1.34a.19.19,0,0,1-.06.36A14.75,14.75,0,0,1,308.48,437.7Zm-1.3-1.6a1.52,1.52,0,0,0-.38,0,.61.61,0,0,0-.38.27c-.13.24-.08.36,0,.43.38.53,2.45.55,4,.33A8.8,8.8,0,0,0,307.18,436.1Z" transform="translate(-2.82 -23.62)"/><path class="cls-17" d="M311,437.47a.11.11,0,0,1-.08,0c-1-.44-3-2.22-2.81-3.15,0-.22.19-.49.73-.54a1.41,1.41,0,0,1,1.07.33c1.05.86,1.27,3.07,1.28,3.17a.17.17,0,0,1-.08.17A.15.15,0,0,1,311,437.47Zm-2-3.33h-.12c-.35,0-.37.17-.38.21-.09.56,1.25,2,2.26,2.57a4.59,4.59,0,0,0-1.08-2.54A1,1,0,0,0,309,434.14Z" transform="translate(-2.82 -23.62)"/><polygon class="cls-14" points="317.18 413.66 308.96 413.66 308.14 394.63 316.36 394.63 317.18 413.66"/><polygon class="cls-14" points="377.49 409.85 369.46 411.59 361.39 393.87 369.43 392.13 377.49 409.85"/><path class="cls-13" d="M371.51,434.4l9-1.95a.72.72,0,0,1,.8.4l3.13,6.8a1.2,1.2,0,0,1-.86,1.68c-3.17.63-4.74.77-8.7,1.63-2.44.53-7.95,1.87-11.33,2.6s-4.53-2.5-3.21-3.11c5.89-2.69,8.35-5.06,9.95-7.27A2,2,0,0,1,371.51,434.4Z" transform="translate(-2.82 -23.62)"/><path class="cls-13" d="M311.84,436.33h9a.71.71,0,0,1,.7.56l1.62,7.3a1.19,1.19,0,0,1-1.18,1.46c-3.23,0-7.91-.24-12-.24-4.76,0-8.87.26-14.44.26-3.38,0-4.31-3.41-2.9-3.72,6.43-1.41,11.67-1.56,17.23-5A3.72,3.72,0,0,1,311.84,436.33Z" transform="translate(-2.82 -23.62)"/><path class="cls-8" d="M345.05,156.83c7.7,1.76,14.05,21.42,14.05,21.42L343.64,190a33.75,33.75,0,0,1-8.21-15.19C332.79,164.55,337.18,155,345.05,156.83Z" transform="translate(-2.82 -23.62)"/><path class="cls-18" d="M345.05,156.83c7.7,1.76,14.05,21.42,14.05,21.42L343.64,190a33.75,33.75,0,0,1-8.21-15.19C332.79,164.55,337.18,155,345.05,156.83Z" transform="translate(-2.82 -23.62)"/><path class="cls-14" d="M304.56,180.29c-1.93,2.07-3.84,3.92-5.83,5.82-1,.94-2,1.87-3,2.77l-1.55,1.36-.39.34c-.19.16-.42.35-.67.54a9.6,9.6,0,0,1-2.25,1.34A7.54,7.54,0,0,1,288,193a6.9,6.9,0,0,1-2.46-.43,6.81,6.81,0,0,1-2.34-1.49,7.07,7.07,0,0,1-1.83-3,9.11,9.11,0,0,1-.33-1.74,11.66,11.66,0,0,1,0-2.09c.06-.56.13-1,.22-1.5a28.65,28.65,0,0,1,1.36-4.71,42.18,42.18,0,0,1,1.81-4.22c.74-1.49,1.46-2.57,2.17-3.82a95.33,95.33,0,0,1,9.88-13.38,89.46,89.46,0,0,1,12-11.35l4.3,4.42c-3,4-6,8.37-8.73,12.64a139.34,139.34,0,0,0-7.48,13.14c-.5,1.1-1.12,2.31-1.47,3.23a31.61,31.61,0,0,0-1.1,3.15,21.58,21.58,0,0,0-.66,2.95,3.15,3.15,0,0,0,0,.46c0,.09,0,.14,0-.11a3.65,3.65,0,0,0-.15-.76,5.14,5.14,0,0,0-1.35-2.17,5.63,5.63,0,0,0-3.89-1.58A4.77,4.77,0,0,0,286,181a2,2,0,0,0-.57.29l.44-.41,1.41-1.29L290.1,177c1.85-1.75,3.71-3.6,5.46-5.33Z" transform="translate(-2.82 -23.62)"/><path class="cls-16" d="M338.45,171.28c4.18,4.14,5.55,11.68,5.87,18.24l-.68.52a33.82,33.82,0,0,1-8.21-15.19c-.16-.61-.29-1.23-.4-1.83Z" transform="translate(-2.82 -23.62)"/><path class="cls-8" d="M296.39,165.07c-1.68,8.87-2.73,27.1,2.14,63.2h44c.3-6.75-3.94-39.66,2.57-71.44A115.14,115.14,0,0,0,330.34,155a161.56,161.56,0,0,0-18.68,0c-2.06.19-4.09.49-5.89.8A11.63,11.63,0,0,0,296.39,165.07Z" transform="translate(-2.82 -23.62)"/><path class="cls-18" d="M296.39,165.07c-1.68,8.87-2.73,27.1,2.14,63.2h44c.3-6.75-3.94-39.66,2.57-71.44A115.14,115.14,0,0,0,330.34,155a161.56,161.56,0,0,0-18.68,0c-2.06.19-4.09.49-5.89.8A11.63,11.63,0,0,0,296.39,165.07Z" transform="translate(-2.82 -23.62)"/><path class="cls-16" d="M303.11,178.19l-7.94-1.91c-.25,4.81-.27,10.78.09,18.15C298.92,190.27,303.58,183.78,303.11,178.19Z" transform="translate(-2.82 -23.62)"/><polygon class="cls-16" points="308.15 394.63 308.57 404.44 316.79 404.44 316.37 394.63 308.15 394.63"/><polygon class="cls-16" points="369.43 392.13 361.39 393.87 365.56 403.01 373.59 401.27 369.43 392.13"/><path class="cls-14" d="M331.93,127.82c-2.11,7.88-2.95,12.6-7.81,15.87-7.31,4.93-16.41-.72-16.7-9.07-.25-7.52,3.24-19.14,11.69-20.72A11.12,11.12,0,0,1,331.93,127.82Z" transform="translate(-2.82 -23.62)"/><path class="cls-13" d="M313.49,128.13c-.39-1.06-2.21-9.2-.5-11.31s21.15-.6,24,2.23c4.77,4.7,1.46,8.89-3.76,14.3-3.93,4.06-4.08,8.64-6.06,9.32-3.48,1.18-8.86.07-9.94-3.64S313.49,128.13,313.49,128.13Z" transform="translate(-2.82 -23.62)"/><path class="cls-13" d="M334.66,109.8c-6.87-2.93-19.76.31-26.72-1.37-.25,3.6,1.93,9.38,8.89,10.94,0,0,9.88,1.92,17.52,1.61S340.5,112.28,334.66,109.8Z" transform="translate(-2.82 -23.62)"/><path class="cls-13" d="M335.74,119.3s4.25.48,7.27-1.39C344.3,121,337.23,121.87,335.74,119.3Z" transform="translate(-2.82 -23.62)"/><path class="cls-14" d="M317.23,128.45a9.12,9.12,0,0,1-2.31,5.45c-1.79,2-3.66.75-4-1.66-.29-2.16.3-5.8,2.49-6.88S317.38,126,317.23,128.45Z" transform="translate(-2.82 -23.62)"/><path class="cls-9" d="M314.12,228.27s9.33,62.79,14.45,86.32c5.6,25.76,35.66,111,35.66,111l14.71-3.18s-21-69.46-25.72-105.48c-3.62-27.66-10.74-88.65-10.74-88.65Z" transform="translate(-2.82 -23.62)"/><path class="cls-13" d="M360.71,420.67c-.06,0,2.74,5.32,2.74,5.32L380,422.41l-1.4-5Z" transform="translate(-2.82 -23.62)"/><path class="cls-19" d="M320,250.64c10.79,2.12,9.65,42.33,8.35,63-3.11-14.62-7.66-42.75-10.77-62.72A3.71,3.71,0,0,1,320,250.64Z" transform="translate(-2.82 -23.62)"/><path class="cls-9" d="M298.53,228.27s-1.13,61.43-.24,86.49c.93,26.06,10,111.4,10,111.4h13.92s.51-83.81,1.13-109.41c.67-27.9,4-88.48,4-88.48Z" transform="translate(-2.82 -23.62)"/><path class="cls-13" d="M305.65,420.62c-.07,0,.78,5.78.78,5.78h16.94l.45-5.16Z" transform="translate(-2.82 -23.62)"/><path class="cls-8" d="M313.61,167.76c3.94,10.62-19.21,23.13-19.21,23.13l-10-12.89s6.69-13.3,14.89-19.3C309.41,151.29,310.61,159.68,313.61,167.76Z" transform="translate(-2.82 -23.62)"/><path class="cls-18" d="M313.61,167.76c3.94,10.62-19.21,23.13-19.21,23.13l-10-12.89s6.69-13.3,14.89-19.3C309.41,151.29,310.61,159.68,313.61,167.76Z" transform="translate(-2.82 -23.62)"/></g><g id="Thinking"><ellipse class="cls-2" cx="401.46" cy="36.66" rx="42.16" ry="26.87"/><path class="cls-4" d="M389.07,73.8a11.8,11.8,0,0,1-11.6-9.8,11.94,11.94,0,0,1,9-13.51h0a11.75,11.75,0,0,1,12.65,5.27l27.06-5.58a4.24,4.24,0,0,1,5,2.91,4.08,4.08,0,0,1-3.12,5l-.71.15a.72.72,0,0,0-.49.36.76.76,0,0,0,0,.61l.48,1.24a1.85,1.85,0,0,1-.72,2.24,2.28,2.28,0,0,0-1.05,1.66A1.83,1.83,0,0,1,424.08,66l-.55.11a1.82,1.82,0,0,1-1.94-.93,2.27,2.27,0,0,0-4.21.87A1.8,1.8,0,0,1,416,67.67l-.55.11a1.8,1.8,0,0,1-1.93-.93,2.3,2.3,0,0,0-1.62-1.1A1.85,1.85,0,0,1,410.31,64l-.05-1.32a.71.71,0,0,0-.28-.54.68.68,0,0,0-.59-.14l-8.62,1.78a11.76,11.76,0,0,1-9.29,9.8A11.6,11.6,0,0,1,389.07,73.8Zm-2.34-22.17a10.75,10.75,0,0,0-8.11,12.17,10.63,10.63,0,0,0,21-.6l0-.43,9.45-2a1.91,1.91,0,0,1,2.27,1.78l.05,1.33a.7.7,0,0,0,.56.67,3.37,3.37,0,0,1,2.46,1.67.68.68,0,0,0,.69.37l.54-.11a.68.68,0,0,0,.49-.62,3.44,3.44,0,0,1,6.39-1.31.66.66,0,0,0,.68.37l.56-.12a.65.65,0,0,0,.48-.61,3.41,3.41,0,0,1,1.59-2.51.69.69,0,0,0,.25-.83l-.48-1.24a1.89,1.89,0,0,1,.11-1.59,1.85,1.85,0,0,1,1.28-.94l.71-.15A2.9,2.9,0,0,0,430,53.39a3,3,0,0,0-3.59-2.07l-27.89,5.76-.21-.37a10.57,10.57,0,0,0-11.59-5.08Zm2.35,17.85a7.49,7.49,0,0,1-4.1-1.23,7.48,7.48,0,1,1,5.63,1.08h0A7.93,7.93,0,0,1,389.08,69.48Zm0-13.8a6.39,6.39,0,0,0-1.3.14,6.31,6.31,0,0,0,2.55,12.36h0a6.32,6.32,0,0,0,2.2-11.46A6.29,6.29,0,0,0,389.12,55.68Z" transform="translate(-2.82 -23.62)"/><ellipse class="cls-2" cx="367.14" cy="70.45" rx="13.86" ry="8.83"/><ellipse class="cls-20" cx="345.11" cy="79.28" rx="5.69" ry="3.63"/></g></svg>