<?xml version="1.0" encoding="utf-8"?>
<!-- Generator: Adobe Illustrator 21.0.0, SVG Export Plug-In . SVG Version: 6.00 Build 0)  -->
<svg version="1.1" id="Layer_1" xmlns="http://www.w3.org/2000/svg" xmlns:xlink="http://www.w3.org/1999/xlink" x="0px" y="0px"
	 viewBox="0 0 627 185" style="enable-background:new 0 0 627 185;" xml:space="preserve">
<style type="text/css">
	.st0{fill:#FFFFFF;}
	.st1{font-family:'Roboto-Italic';}
	.st2{font-size:33px;}
	.st3{letter-spacing:2;}
	.st4{letter-spacing:3;}
	.st5{letter-spacing:1;}
</style>
<text transform="matrix(1 0 0 1 138.66 170.54)" class="st0 st1 st2 st3">A</text>
<text transform="matrix(1 0 0 1 162.25 170.54)" class="st0 st1 st2 st4">CCELER</text>
<text transform="matrix(1 0 0 1 294.73 170.54)" class="st0 st1 st2 st5">A</text>
<text transform="matrix(1 0 0 1 316.41 170.54)" class="st0 st1 st2 st4">TING BUSINESSES</text>
<path class="st0" d="M83.1,69.9L15.9,2.5c-3-2.9-7.8-2.7-10.6,0.3c0,0,0,0,0,0l0,0c-3,2.9-3.2,7.6-0.3,10.7l67.2,67.5
	c3,2.9,7.8,2.7,10.6-0.3c0,0,0,0,0,0l0,0C85.9,77.7,86,73,83.1,69.9z"/>
<path class="st0" d="M80.6,82.6l43.3-43.1c1.8-1.8,0.9-5.8-2.2-8.8l0,0c-3-3-7-4-8.8-2.2L69.6,71.7c-1.8,1.8-0.9,5.8,2.2,8.8l0,0
	C74.8,83.5,78.7,84.5,80.6,82.6z"/>
<path class="st0" d="M62.2,88.3L10,36c-2.3-2.2-6-2.1-8.3,0.2c0,0,0,0,0,0l0,0c-2.3,2.2-2.5,5.9-0.2,8.3l52.2,52.4
	c2.3,2.2,6,2.1,8.3-0.2c0,0,0,0,0,0l0,0C64.3,94.4,64.4,90.7,62.2,88.3z"/>
<path class="st0" d="M83.1,115.1l-67.2,67.5c-3,2.9-7.8,2.7-10.6-0.3c0,0,0,0,0,0l0,0c-3-2.9-3.2-7.6-0.3-10.7l67.2-67.5
	c3-2.9,7.8-2.7,10.6,0.3c0,0,0,0,0,0l0,0C85.9,107.3,86,112,83.1,115.1z"/>
<path class="st0" d="M80.6,102.4l43.3,43.1c1.8,1.8,0.9,5.8-2.2,8.8l0,0c-3,3-7,4-8.8,2.2l-43.3-43.1c-1.8-1.8-0.9-5.8,2.2-8.8l0,0
	C74.8,101.5,78.7,100.5,80.6,102.4z"/>
<path class="st0" d="M62.2,96.7L10,149c-2.3,2.2-6,2.1-8.3-0.2c0,0,0,0,0,0l0,0c-2.3-2.2-2.5-5.9-0.2-8.3l52.2-52.3
	c2.3-2.2,6-2.1,8.3,0.2c0,0,0,0,0,0l0,0C64.3,90.6,64.4,94.3,62.2,96.7z"/>
<polygon class="st0" points="202.8,127.1 170.6,84.3 170.6,125.5 165.6,125.5 165.6,69.4 206.8,124 "/>
<rect x="190.8" y="49.5" transform="matrix(0.8159 -0.5781 0.5781 0.8159 -16.8677 128.4356)" class="st0" width="5" height="82.5"/>
<polygon class="st0" points="235.7,125.7 230.7,125.7 230.7,68.9 205.6,104.2 201.5,101.3 235.7,53.3 "/>
<polygon class="st0" points="363.4,126.7 339.4,67.9 317.3,125.3 312.6,123.5 339.2,54.3 368,124.8 "/>
<rect x="325.9" y="110.7" class="st0" width="21" height="5"/>
<rect x="449.3" y="61.1" class="st0" width="5" height="64.3"/>
<rect x="498.3" y="56.1" class="st0" width="5" height="69.3"/>
<rect x="536.3" y="61.1" class="st0" width="5" height="64.3"/>
<polygon class="st0" points="625,125 583.2,125 583.2,58.6 625,58.6 625,63.6 588.2,63.6 588.2,120 625,120 "/>
<rect x="586.5" y="84" class="st0" width="29.6" height="5"/>
<rect x="586.5" y="97.2" class="st0" width="29.6" height="5"/>
<polygon class="st0" points="566,126.6 553.8,104.2 539.8,104.2 539.8,99.2 556.8,99.2 570.4,124.2 "/>
<path class="st0" d="M467.4,92.7h-18.2v-37h18.2c9.5,0,17.1,8.3,17.1,18.5S476.9,92.7,467.4,92.7z M454.3,87.7h13.2
	c6.7,0,12.1-6,12.1-13.5s-5.5-13.5-12.1-13.5h-13.2V87.7z"/>
<polygon class="st0" points="291,125 249.1,125 249.1,55.6 291,55.6 291,60.6 254.1,60.6 254.1,120 291,120 "/>
<rect x="252.5" y="84" class="st0" width="29.6" height="5"/>
<rect x="252.5" y="97.2" class="st0" width="29.6" height="5"/>
<rect x="339.1" y="77.8" transform="matrix(0.9273 -0.3743 0.3743 0.9273 -13.4957 135.2993)" class="st0" width="5" height="49.1"/>
<polygon class="st0" points="441.5,125.6 436.5,125.6 436.5,55.7 451.8,55.7 451.8,60.7 441.5,60.7 "/>
<path class="st0" d="M152.1,107.2c0.2,5.2-2.1,10.2-6.2,13.3c-4.1,3.3-9.6,4.9-16.5,4.9c-8.2,0-14.5-0.9-18.9-2.7v-4.7
	c4.8,2.1,11,3.1,18.6,3.1c5.5,0,9.9-1.3,13.1-3.8c3.2-2.3,5-6.1,4.9-10c0.1-2.2-0.5-4.4-1.6-6.3c-1.4-1.9-3.2-3.5-5.2-4.6
	c-3.4-1.8-7-3.3-10.7-4.4c-6.9-2.4-11.6-4.9-14.3-7.7c-2.6-2.7-3.9-6.4-3.9-11c-0.1-4.8,2.1-9.4,5.9-12.3c3.9-3.2,9-4.8,15.2-4.8
	c6.1,0,12.2,1.2,17.8,3.6l-1.7,4.1c-5-2.2-10.5-3.4-16-3.5c-5,0-8.9,1.2-11.9,3.5c-2.9,2.2-4.6,5.7-4.4,9.4
	c-0.1,2.1,0.4,4.2,1.3,6.1c1.1,1.8,2.6,3.3,4.4,4.3c3.4,1.9,6.9,3.4,10.6,4.6c4.1,1.3,8.1,3.1,11.8,5.3c2.4,1.4,4.4,3.4,5.8,5.8
	C151.6,101.7,152.2,104.5,152.1,107.2z"/>
<polygon class="st0" points="529.5,125.6 524.5,125.6 524.5,55.7 539.8,55.7 539.8,60.7 529.5,60.7 "/>
<path class="st0" d="M554.4,92.7h-18.2v-37h18.2c9.5,0,17.1,8.3,17.1,18.5S563.9,92.7,554.4,92.7z M541.3,87.7h13.2
	c6.7,0,12.1-6,12.1-13.5s-5.5-13.5-12.1-13.5h-13.2V87.7z"/>
<path class="st0" d="M420.1,107.2c0.2,5.2-2.1,10.2-6.2,13.3c-4.1,3.3-9.6,4.9-16.5,4.9c-8.2,0-14.5-0.9-18.9-2.7v-4.7
	c4.9,2.1,11,3.1,18.6,3.1c5.5,0,9.9-1.3,13.1-3.8c3.2-2.3,5-6.1,4.9-10c0.1-2.2-0.5-4.4-1.6-6.3c-1.4-1.9-3.2-3.5-5.2-4.6
	c-3.4-1.8-7-3.3-10.7-4.4c-6.9-2.4-11.6-4.9-14.3-7.7c-2.6-2.7-3.9-6.4-3.9-11c-0.1-4.8,2.1-9.4,5.9-12.3c3.9-3.2,9-4.8,15.2-4.8
	c6.1,0,12.2,1.2,17.8,3.6l-1.7,4.1c-5-2.2-10.5-3.4-16-3.5c-5,0-8.9,1.2-11.9,3.5c-2.9,2.2-4.6,5.7-4.4,9.4
	c-0.1,2.1,0.4,4.2,1.4,6.1c1.1,1.8,2.6,3.3,4.5,4.3c3.4,1.9,6.9,3.4,10.6,4.6c4.1,1.3,8.1,3.1,11.8,5.3c2.4,1.4,4.4,3.4,5.8,5.8
	C419.6,101.7,420.2,104.5,420.1,107.2z"/>
</svg>
