<svg id="Layer_1" data-name="Layer 1" xmlns="http://www.w3.org/2000/svg" viewBox="0 0 300 267.84"><defs><style>.cls-1{fill:#fc0303;}</style></defs><path class="cls-1" d="M126.85,29.77a7.26,7.26,0,0,0,2.35-2.94l6.56-5.93,2.39-1.56c2.81-1.5,5.9-2.23,8.88-3.23a36.54,36.54,0,0,1,8.85.76c9.86,3.23,16,10.49,21,19.1.53.92,1.17,1.78,1.76,2.67a26.74,26.74,0,0,0,4,6.73,3.3,3.3,0,0,0,1.24,2.23,72.59,72.59,0,0,0,5.38,9.53l1.92,3.46q1.47,2.4,2.93,4.8l10.16,17.79c1.68,2.87,3,5.93,5.15,8.53a.48.48,0,0,0,.15.39,70.34,70.34,0,0,0,5.1,9,23.67,23.67,0,0,0,3.71,6.08,7.43,7.43,0,0,0,1.81,3.41l10,17.28c3.31,6,6.59,12,10.36,17.72a33.58,33.58,0,0,0,4.64,7.91l.45,1q5.13,8.89,10.27,17.78,5.35,9.22,10.72,18.46,4.65,8.82,9.95,17.27a39.62,39.62,0,0,0,4.26,7.21l.75,1.58,5.25,8.94c.87,1.72,1.55,3.55,3,4.93.18,1.65,1.48,2.68,2.22,4,3,5.71,6.34,11.26,7.46,17.75.92,2.93.24,6,.59,8.94-1.45,10.21-7.47,16.54-17,19.93-.73.26-1.44.59-2.16.89l-9.69,1.61-8.17.1a55.22,55.22,0,0,0-8.91,0h-8.93a55.22,55.22,0,0,0-8.91,0h-8.94a55.22,55.22,0,0,0-8.91,0h-8.93a55.22,55.22,0,0,0-8.91,0h-8.94a55.22,55.22,0,0,0-8.91,0h-8.93a55.22,55.22,0,0,0-8.91,0h-8.94a55.22,55.22,0,0,0-8.91,0H138.1a55.22,55.22,0,0,0-8.91,0h-8.94a55.22,55.22,0,0,0-8.91,0h-8.93a55.22,55.22,0,0,0-8.91,0H84.56a55.22,55.22,0,0,0-8.91,0H66.72a55.34,55.34,0,0,0-8.92,0H48.87a55.22,55.22,0,0,0-8.91,0H31l-8.94-1.06c-3-1-6.06-1.64-8.9-3a2,2,0,0,0-1.51-.69,44.28,44.28,0,0,1-6.87-5.88,9.65,9.65,0,0,0-2.13-3A31.11,31.11,0,0,1,0,261.39c.33-3-.3-6,.59-8.94.51-3.06,1.76-5.9,2.69-8.83a3.78,3.78,0,0,0,1.05-2.24q1.89-3.34,3.79-6.69,2.55-4.47,5.12-8.93c.57-.21.5-.74.59-1.18a50,50,0,0,0,4.66-7.76L28.7,199l2.83-4.81c.63-1.16,1.69-2.09,1.93-3.47A72.59,72.59,0,0,0,39,181.3c.55-1,1.51-1.81,1.64-3.05a27.63,27.63,0,0,0,3.57-5.95l10.26-17.77,10.41-17.89c.61-1.18,1.7-2.1,1.92-3.49a23.4,23.4,0,0,0,3.13-5.3,74,74,0,0,0,5.11-9l.67-1.14a44.92,44.92,0,0,0,4.79-8.35c3.79-5.5,6.83-11.44,10.11-17.23l10.27-17.78c.53-1,1.54-1.69,1.59-2.93a27.43,27.43,0,0,0,3.5-6l5.31-8.93a1.59,1.59,0,0,0,.13-.52,47.93,47.93,0,0,0,4.79-8.34ZM156,246.47a13.5,13.5,0,0,0,6.62-2.89l2.95-2.36a17.42,17.42,0,0,0,4.74-6.55c1.85-2.71,1.79-5.89,2.23-8.95a24.53,24.53,0,0,0-1.78-8.87c-1.37-3-2.93-5.9-5.81-7.81a4,4,0,0,0-2.34-1.9c-1.82-1.89-4.23-2.57-6.64-3.28-2.9-1.12-5.89-.87-8.89-.59-8.5,1.15-14.2,6-17.76,13.57l-.21,1a19.54,19.54,0,0,0,.66,16.84c3.59,7.15,9.16,11.55,17.29,12.4A14.71,14.71,0,0,0,156,246.47Zm-20.78-92a46,46,0,0,0,1.61,9.68l2,17c.34,8.64.34,8.64,8.24,8.23h8.89c5.15.27,5.15.27,5.38-4.9,0-1.08.12-2.16.18-3.24a42.51,42.51,0,0,0,1-9c1-2.86,1-5.86,1.35-8.83a174.18,174.18,0,0,0,2.73-17.88c1.09-2.88,1-6,1.74-8.94.17-3,1.32-5.85,1.24-8.88a36.12,36.12,0,0,0,1.44-8.81,44.24,44.24,0,0,0,1.12-8.26c.72-3.36-.2-6.53-1.1-9.71a12.92,12.92,0,0,0-2-4.48C166,91.55,162,87.83,156,86.81a14.77,14.77,0,0,0-8.94-.54,6.35,6.35,0,0,0-2.59.18c-7.75,2.11-12.79,7-15.46,14.52-2.27,6-1.4,12,.06,18,.48,2.92,1,5.85,1.45,8.78s1.16,5.92,1.73,8.88l1.61,9.68A36.28,36.28,0,0,0,135.18,154.46Z" transform="translate(0 -16.08)"/></svg>